# xmcd
#
# Track frame offsets: 
#        150
#        18089
#        32553
#        55704
#        77942
#        102280
#        121912
#        141332
#        183139
#        197421
#
# Disc length: 2842 seconds
#
# Revision: 0
# Processed by: cddbd v1.5.2PL0 Copyright (c) Steve Scherf et al.
# Submitted via: ExactAudioCopyFreeDBPlugin 1.0
#
DISCID=760b180a
DTITLE=King Of The World - Connected
DYEAR=2019
DGENRE=Blues
TTITLE0=Love Don't Come From You
TTITLE1=Connected
TTITLE2=Give Me Back My Heart
TTITLE3=Future Man
TTITLE4=Saving Grace
TTITLE5=Eyes Wide Open
TTITLE6=Money
TTITLE7=Life After You
TTITLE8=I Can't Help Myself
TTITLE9=Space Captain
EXTD=
EXTT0=
EXTT1=
EXTT2=
EXTT3=
EXTT4=
EXTT5=
EXTT6=
EXTT7=
EXTT8=
EXTT9=
PLAYORDER=
